<svg width="130px" height="18px" viewBox="0 0 130 18" version="1.1" xmlns="http://www.w3.org/2000/svg" xmlns:xlink="http://www.w3.org/1999/xlink">
    <g id="Reorg" stroke="none" stroke-width="1" fill="none" fill-rule="evenodd">
        <g id="Artboard-Copy-11" transform="translate(-30.000000, -43.000000)" fill-rule="nonzero" fill="#3e824d">
            <path d="M38.8271605,53.4711766 L33.0092593,53.4711766 L33.0092593,60.3493024 L30,60.3493024 L30,43.4106344 L40.2314815,43.4106344 L39.529321,46.0797578 L33.0092593,46.0797578 L33.0092593,50.8020532 L38.8271605,50.8020532 L38.8271605,53.4711766 L38.8271605,53.4711766 Z M58.587963,60.3493024 L56.9830247,56.4482759 L48.8580247,56.4482759 L47.1527778,60.3493024 L44.0432099,60.3493024 L51.566358,43.3079758 L54.5756173,43.3079758 L61.8981481,60.3493024 L58.587963,60.3493024 L58.587963,60.3493024 Z M55.9799383,53.7791524 L52.970679,46.5930508 L49.8611111,53.7791524 L55.9799383,53.7791524 Z M69.0200617,58.193472 C67.4151235,56.5509345 66.6126543,54.4977626 66.6126543,51.8286391 C66.6126543,49.3648329 67.4151235,47.2090024 69.1203704,45.5664649 C70.8256173,43.9239273 72.8317901,43 75.2391975,43 C76.3425926,43 77.2453704,43.2053172 78.2484568,43.513293 C79.1512346,43.8212688 80.0540123,44.3345617 80.7561728,45.0531719 L80.7561728,48.5435641 C79.8533951,47.6196367 78.9506173,47.0036852 78.0478395,46.5930508 C77.1450617,46.1824164 76.242284,45.9770992 75.3395062,45.9770992 C73.8348765,45.9770992 72.4305556,46.5930508 71.3271605,47.7222953 C70.2237654,48.8515399 69.7222222,50.2887602 69.7222222,51.9312977 C69.7222222,53.6764938 70.2237654,55.1137141 71.3271605,56.2429587 C72.4305556,57.3722032 73.7345679,57.9881548 75.2391975,57.9881548 C76.242284,57.9881548 77.2453704,57.7828376 78.1481481,57.3722032 C79.1512346,56.9615688 80.0540123,56.2429587 80.9567901,55.4216899 L80.5555556,58.8094235 C79.6527778,59.5280337 78.75,59.9386681 77.8472222,60.3493024 C76.9444444,60.6572782 75.941358,60.8625954 74.837963,60.8625954 C72.6311728,60.6572782 70.625,59.8360095 69.0200617,58.193472 L69.0200617,58.193472 Z M90.2854938,58.6041063 C88.9814815,57.2695446 88.3796296,55.3190313 88.3796296,52.8552251 L88.3796296,43.4106344 L91.3888889,43.4106344 L91.3888889,52.8552251 C91.3888889,54.4977626 91.7901235,55.7296657 92.5925926,56.5509345 C93.3950617,57.4748618 94.4984568,57.8854962 95.9027778,57.8854962 C97.3070988,57.8854962 98.4104938,57.4748618 99.212963,56.5509345 C100.015432,55.6270071 100.416667,54.395104 100.416667,52.7525665 L100.416667,43.4106344 L103.325617,43.4106344 L103.325617,52.8552251 C103.325617,55.3190313 102.723765,57.2695446 101.419753,58.6041063 C100.115741,59.9386681 98.3101852,60.6572782 96.0030864,60.6572782 C93.3950617,60.6572782 91.5895062,59.9386681 90.2854938,58.6041063 L90.2854938,58.6041063 Z M111.25,60.3493024 L111.25,43.4106344 L114.259259,43.4106344 L114.259259,57.680179 L121.180556,57.680179 L121.180556,60.451961 L111.25,60.451961 L111.25,60.3493024 Z M140.239198,46.0797578 L134.020062,46.0797578 L134.020062,60.3493024 L131.010802,60.3493024 L131.010802,46.0797578 L124.791667,46.0797578 L124.791667,43.3079758 L140.239198,43.3079758 L140.239198,46.0797578 Z M153.680556,60.3493024 L150.671296,60.3493024 L150.671296,53.0605422 L144.251543,43.4106344 L147.762346,43.4106344 L152.175926,50.2887602 L156.589506,43.4106344 L160,43.4106344 L153.580247,53.0605422 L153.580247,60.3493024 L153.680556,60.3493024 Z" id="Shape"></path>
        </g>
    </g>
</svg>
